<svg width="50" height="50" viewBox="0 0 50 50" fill="none" xmlns="http://www.w3.org/2000/svg">
<circle cx="25" cy="25" r="25" fill="#D9D9D9"/>
<path fill-rule="evenodd" clip-rule="evenodd" d="M26.8257 31.4507C26.474 31.8022 25.9972 31.9996 25.5 31.9996C25.0028 31.9996 24.526 31.8022 24.1744 31.4507L13.5675 20.8438C13.3885 20.6708 13.2456 20.4639 13.1473 20.2352C13.0491 20.0064 12.9974 19.7604 12.9952 19.5114C12.993 19.2624 13.0405 19.0156 13.1347 18.7851C13.229 18.5547 13.3682 18.3453 13.5443 18.1693C13.7203 17.9932 13.9297 17.854 14.1601 17.7597C14.3905 17.6655 14.6374 17.618 14.8864 17.6202C15.1354 17.6224 15.3814 17.6741 15.6102 17.7723C15.8389 17.8706 16.0458 18.0135 16.2188 18.1925L25.5 27.4738L34.7813 18.1925C35.1349 17.851 35.6085 17.662 36.1002 17.6663C36.5918 17.6705 37.062 17.8677 37.4097 18.2154C37.7573 18.563 37.9545 19.0333 37.9588 19.5249C37.9631 20.0165 37.7741 20.4902 37.4325 20.8438L26.8257 31.4507Z" fill="black"/>
</svg>
