<svg width="42" height="44" viewBox="0 0 42 44" fill="none" xmlns="http://www.w3.org/2000/svg">
<path d="M21.711 0.210281C21.4925 0.0722521 21.2482 0 21 0C20.7518 0 20.5075 0.0722521 20.289 0.210281L2.367 11.5344C1.6518 11.9861 1.05414 12.6566 0.637414 13.4746C0.220685 14.2927 0.000426359 15.2278 0 16.1809V36.9599C0 38.827 0.632141 40.6177 1.75736 41.938C2.88258 43.2583 4.4087 44 6 44H36C37.5913 44 39.1174 43.2583 40.2426 41.938C41.3679 40.6177 42 38.827 42 36.9599V16.1809C41.9996 15.2278 41.7793 14.2927 41.3626 13.4746C40.9459 12.6566 40.3482 11.9861 39.633 11.5344L21.711 0.210281ZM3.789 14.632L21 3.75499L38.211 14.632C38.394 14.7481 38.5544 14.9075 38.682 15.1002L21 26.1638L3.318 15.1002C3.44564 14.9075 3.60604 14.7481 3.789 14.632ZM3 18.8913L20.295 29.7085C20.512 29.8441 20.7541 29.915 21 29.915C21.2459 29.915 21.488 29.8441 21.705 29.7085L39 18.8913V36.9599C39 37.8934 38.6839 38.7888 38.1213 39.4489C37.5587 40.1091 36.7957 40.4799 36 40.4799H6C5.20435 40.4799 4.44129 40.1091 3.87868 39.4489C3.31607 38.7888 3 37.8934 3 36.9599V18.8913Z" fill="#FF0000" fill-opacity="0.33"/>
</svg>
