<svg width="61" height="62" viewBox="0 0 61 62" fill="none" xmlns="http://www.w3.org/2000/svg">
<path d="M35.5675 31.709L23.0939 17.558C22.4345 16.8106 22.4896 15.6547 23.2174 14.9777C23.9434 14.2997 25.0684 14.3572 25.7269 15.1047L39.2624 30.459C39.6259 30.8711 39.7645 31.4075 39.7005 31.9191C39.7147 32.4345 39.5263 32.9526 39.1256 33.3254L24.1949 47.2424C23.8545 47.5604 23.4271 47.7166 23.0006 47.7166C22.5162 47.7166 22.0346 47.5138 21.6836 47.1163C21.0251 46.3689 21.0793 45.213 21.8071 44.5359L35.5675 31.709Z" fill="black"/>
<path d="M0.741657 31.1098C0.741657 14.2533 14.0799 0.539062 30.4733 0.539062C46.8667 0.539062 60.2041 14.2533 60.2041 31.1098C60.2041 47.9672 46.8667 61.6814 30.4733 61.6814C14.0799 61.6814 0.741657 47.9672 0.741657 31.1098ZM30.4733 58.0264C44.9073 58.0264 56.6496 45.9515 56.6496 31.1098C56.6496 16.2689 44.9073 4.19399 30.4733 4.19399C16.0394 4.19399 4.29616 16.2689 4.29616 31.1098C4.29616 45.9515 16.0394 58.0264 30.4733 58.0264Z" fill="black"/>
</svg>
