<svg width="15" height="15" viewBox="0 0 15 15" fill="none" xmlns="http://www.w3.org/2000/svg">
<path d="M10.4821 1.111C10.4821 0.857464 10.5917 0.614308 10.7866 0.435028C10.9816 0.255748 11.246 0.155029 11.5216 0.155029H13.6006C13.8763 0.155029 14.1407 0.255748 14.3357 0.435028C14.5306 0.614308 14.6401 0.857464 14.6401 1.111V3.97893C14.6401 4.23247 14.5306 4.47562 14.3357 4.6549C14.1407 4.83418 13.8763 4.9349 13.6006 4.9349H13.0809V14.0167C13.0809 14.1434 13.0261 14.265 12.9287 14.3546C12.8312 14.4443 12.699 14.4946 12.5611 14.4946C12.4233 14.4946 12.2911 14.4443 12.1936 14.3546C12.0962 14.265 12.0414 14.1434 12.0414 14.0167V4.9349H11.5216C11.246 4.9349 10.9816 4.83418 10.7866 4.6549C10.5917 4.47562 10.4821 4.23247 10.4821 3.97893V1.111ZM9.70252 1.111H3.93694C3.46392 1.11097 3.00502 1.25929 2.63601 1.53146C2.26701 1.80364 2.00997 2.18341 1.90732 2.60806L1.57572 3.97893H1.12666C0.988811 3.97893 0.856611 4.02929 0.759139 4.11893C0.661667 4.20857 0.606908 4.33014 0.606908 4.45691C0.606908 4.58368 0.661667 4.70526 0.759139 4.7949C0.856611 4.88454 0.988811 4.9349 1.12666 4.9349H1.34495L1.17343 5.64471C0.844758 5.80898 0.570365 6.05176 0.379183 6.34746C0.188001 6.64316 0.087114 6.98082 0.0871582 7.32484V12.1047C0.0871582 12.485 0.251436 12.8498 0.543852 13.1187C0.836267 13.3876 1.23287 13.5387 1.64641 13.5387H2.16616C2.57969 13.5387 2.9763 13.3876 3.26871 13.1187C3.56113 12.8498 3.7254 12.485 3.7254 12.1047V11.6267H9.9624V12.1047C9.96228 12.4437 10.0927 12.7717 10.3306 13.0306C10.5685 13.2895 10.8984 13.4626 11.2618 13.5191V12.5186C11.1828 12.4767 11.1172 12.4164 11.0715 12.3437C11.0259 12.271 11.0019 12.1886 11.0019 12.1047V11.6267H11.2618V5.63515C11.022 5.6033 10.7916 5.52774 10.584 5.41289H2.29401L2.92187 2.81551C2.97319 2.60322 3.10167 2.41337 3.28612 2.27728C3.47057 2.1412 3.69995 2.06702 3.93642 2.06698H9.70252V1.111ZM1.12666 12.1047V11.6267H2.68591V12.1047C2.68591 12.2315 2.63115 12.3531 2.53367 12.4427C2.4362 12.5323 2.304 12.5827 2.16616 12.5827H1.64641C1.50856 12.5827 1.37636 12.5323 1.27889 12.4427C1.18142 12.3531 1.12666 12.2315 1.12666 12.1047ZM5.54453 9.71477C5.40668 9.71477 5.27448 9.66442 5.17701 9.57478C5.07954 9.48514 5.02478 9.36356 5.02478 9.23679C5.02478 9.11002 5.07954 8.98844 5.17701 8.8988C5.27448 8.80916 5.40668 8.7588 5.54453 8.7588H8.14328C8.28112 8.7588 8.41332 8.80916 8.51079 8.8988C8.60827 8.98844 8.66302 9.11002 8.66302 9.23679C8.66302 9.36356 8.60827 9.48514 8.51079 9.57478C8.41332 9.66442 8.28112 9.71477 8.14328 9.71477H5.54453ZM4.24515 8.04182C4.24515 8.23197 4.16302 8.41434 4.01681 8.5488C3.8706 8.68326 3.6723 8.7588 3.46553 8.7588C3.25876 8.7588 3.06046 8.68326 2.91425 8.5488C2.76804 8.41434 2.68591 8.23197 2.68591 8.04182C2.68591 7.85166 2.76804 7.6693 2.91425 7.53484C3.06046 7.40038 3.25876 7.32484 3.46553 7.32484C3.6723 7.32484 3.8706 7.40038 4.01681 7.53484C4.16302 7.6693 4.24515 7.85166 4.24515 8.04182ZM10.2223 7.32484C10.429 7.32484 10.6273 7.40038 10.7736 7.53484C10.9198 7.6693 11.0019 7.85166 11.0019 8.04182C11.0019 8.23197 10.9198 8.41434 10.7736 8.5488C10.6273 8.68326 10.429 8.7588 10.2223 8.7588C10.0155 8.7588 9.8172 8.68326 9.671 8.5488C9.52479 8.41434 9.44265 8.23197 9.44265 8.04182C9.44265 7.85166 9.52479 7.6693 9.671 7.53484C9.8172 7.40038 10.0155 7.32484 10.2223 7.32484Z" fill="white"/>
</svg>
