<svg width="22" height="22" viewBox="0 0 22 22" fill="none" xmlns="http://www.w3.org/2000/svg">
<path d="M15.7143 1.46667C15.7143 1.07768 15.8798 0.70463 16.1745 0.429577C16.4692 0.154523 16.8689 0 17.2857 0H20.4286C20.8453 0 21.245 0.154523 21.5397 0.429577C21.8344 0.70463 22 1.07768 22 1.46667V5.86667C22 6.25565 21.8344 6.6287 21.5397 6.90376C21.245 7.17881 20.8453 7.33333 20.4286 7.33333H19.6429V21.2667C19.6429 21.4612 19.5601 21.6477 19.4127 21.7852C19.2654 21.9227 19.0655 22 18.8571 22C18.6488 22 18.4489 21.9227 18.3016 21.7852C18.1542 21.6477 18.0714 21.4612 18.0714 21.2667V7.33333H17.2857C16.8689 7.33333 16.4692 7.17881 16.1745 6.90376C15.8798 6.6287 15.7143 6.25565 15.7143 5.86667V1.46667ZM14.5357 1.46667H5.81979C5.1047 1.46661 4.41098 1.69416 3.85315 2.11174C3.29532 2.52932 2.90674 3.11196 2.75157 3.76347L2.25029 5.86667H1.57143C1.36304 5.86667 1.16319 5.94393 1.01584 6.08146C0.868495 6.21898 0.785714 6.40551 0.785714 6.6C0.785714 6.79449 0.868495 6.98102 1.01584 7.11854C1.16319 7.25607 1.36304 7.33333 1.57143 7.33333H1.90143L1.64214 8.42233C1.14528 8.67436 0.730472 9.04683 0.441459 9.5005C0.152446 9.95416 -6.68469e-05 10.4722 2.19794e-08 11V18.3333C2.19794e-08 18.9168 0.248341 19.4764 0.690391 19.889C1.13244 20.3015 1.73199 20.5333 2.35714 20.5333H3.14286C3.76801 20.5333 4.36756 20.3015 4.80961 19.889C5.25166 19.4764 5.5 18.9168 5.5 18.3333V17.6H14.9286V18.3333C14.9284 18.8534 15.1256 19.3566 15.4852 19.7539C15.8448 20.1511 16.3435 20.4166 16.8929 20.5033V18.9684C16.7734 18.904 16.6742 18.8115 16.6053 18.7C16.5363 18.5885 16.5 18.4621 16.5 18.3333V17.6H16.8929V8.40767C16.5304 8.3588 16.1821 8.24287 15.8683 8.06667H3.33614L4.28529 4.08173C4.36286 3.75604 4.55709 3.46477 4.83592 3.25598C5.11476 3.0472 5.46153 2.93339 5.819 2.93333H14.5357V1.46667ZM1.57143 18.3333V17.6H3.92857V18.3333C3.92857 18.5278 3.84579 18.7144 3.69844 18.8519C3.55109 18.9894 3.35124 19.0667 3.14286 19.0667H2.35714C2.14876 19.0667 1.94891 18.9894 1.80156 18.8519C1.65421 18.7144 1.57143 18.5278 1.57143 18.3333ZM8.25 14.6667C8.04162 14.6667 7.84177 14.5894 7.69442 14.4519C7.54707 14.3144 7.46429 14.1278 7.46429 13.9333C7.46429 13.7388 7.54707 13.5523 7.69442 13.4148C7.84177 13.2773 8.04162 13.2 8.25 13.2H12.1786C12.387 13.2 12.5868 13.2773 12.7342 13.4148C12.8815 13.5523 12.9643 13.7388 12.9643 13.9333C12.9643 14.1278 12.8815 14.3144 12.7342 14.4519C12.5868 14.5894 12.387 14.6667 12.1786 14.6667H8.25ZM6.28571 12.1C6.28571 12.3917 6.16154 12.6715 5.94052 12.8778C5.71949 13.0841 5.41972 13.2 5.10714 13.2C4.79457 13.2 4.49479 13.0841 4.27377 12.8778C4.05274 12.6715 3.92857 12.3917 3.92857 12.1C3.92857 11.8083 4.05274 11.5285 4.27377 11.3222C4.49479 11.1159 4.79457 11 5.10714 11C5.41972 11 5.71949 11.1159 5.94052 11.3222C6.16154 11.5285 6.28571 11.8083 6.28571 12.1ZM15.3214 11C15.634 11 15.9338 11.1159 16.1548 11.3222C16.3758 11.5285 16.5 11.8083 16.5 12.1C16.5 12.3917 16.3758 12.6715 16.1548 12.8778C15.9338 13.0841 15.634 13.2 15.3214 13.2C15.0089 13.2 14.7091 13.0841 14.4881 12.8778C14.267 12.6715 14.1429 12.3917 14.1429 12.1C14.1429 11.8083 14.267 11.5285 14.4881 11.3222C14.7091 11.1159 15.0089 11 15.3214 11Z" fill="#828282" fill-opacity="0.5"/>
</svg>
