<svg width="22" height="22" viewBox="0 0 22 22" fill="none" xmlns="http://www.w3.org/2000/svg">
<path d="M6.31828 16.7756H20.9059C21.5103 16.7756 22 16.286 22 15.6816V1.09396C22 0.489607 21.5103 -0.000125885 20.9059 -0.000125885H6.31828C5.71393 -0.000125885 5.22424 0.489607 5.22424 1.09396V15.6816C5.22424 16.286 5.71393 16.7756 6.31828 16.7756ZM7.41237 2.18805H19.8119V14.5875H7.41237V2.18805Z" fill="#828282" fill-opacity="0.5"/>
<path d="M0.216948 3.53355H1.4036V16.302H0.216948C0.129313 16.302 0.0502729 16.3547 0.0167942 16.4359C-0.0170422 16.5171 0.00148678 16.6101 0.0637889 16.6723L1.97949 18.588C2.06426 18.6728 2.20171 18.6728 2.28643 18.588L4.20217 16.6723C4.26448 16.61 4.28301 16.5171 4.24917 16.4359C4.21565 16.3547 4.13661 16.302 4.04897 16.302H2.86232V3.53355H4.04897C4.13661 3.53355 4.21565 3.48087 4.24917 3.39968C4.28296 3.31845 4.26448 3.22544 4.20217 3.16314L2.28643 1.24744C2.20171 1.16267 2.06421 1.16267 1.97949 1.24744L0.0637889 3.16314C0.00144196 3.22544 -0.017087 3.3184 0.0167942 3.39968C0.0502729 3.48087 0.129269 3.53355 0.216948 3.53355Z" fill="#828282" fill-opacity="0.5"/>
<path d="M18.8367 17.7373C18.7744 17.675 18.6814 17.6565 18.6002 17.6903C18.519 17.7238 18.4663 17.8029 18.4663 17.8905V19.0771H5.69781V17.8905C5.69781 17.8029 5.64513 17.7238 5.56394 17.6903C5.48275 17.6565 5.38979 17.675 5.32744 17.7373L3.41174 19.653C3.32697 19.7378 3.32697 19.8753 3.41174 19.9601L5.32744 21.8757C5.38979 21.9381 5.4827 21.9566 5.56394 21.9228C5.64513 21.8893 5.69781 21.8102 5.69781 21.7226V20.5359H18.4663V21.7226C18.4663 21.8102 18.519 21.8893 18.6002 21.9228C18.6814 21.9566 18.7744 21.9381 18.8367 21.8757L20.7523 19.9601C20.8371 19.8753 20.8371 19.7378 20.7523 19.653L18.8367 17.7373Z" fill="#828282" fill-opacity="0.5"/>
</svg>
