<svg width="23" height="22" viewBox="0 0 23 22" fill="none" xmlns="http://www.w3.org/2000/svg">
<g clip-path="url(#clip0_108_296)">
<path d="M21.2135 17.7534V11.4782H22.17C22.5661 11.4782 22.8874 11.1569 22.8874 10.7608C22.8874 10.3648 22.5661 10.0434 22.17 10.0434H19.7787V2.15218C19.7787 0.965422 18.8133 0 17.6266 0H6.14833C4.96158 0 3.99615 0.965422 3.99615 2.15218V10.0435H1.60486C1.20881 10.0435 0.887451 10.3648 0.887451 10.7609C0.887451 11.1569 1.20881 11.4783 1.60486 11.4783H2.56138V17.7534C1.60486 17.9721 0.887451 18.8259 0.887451 19.8478V21.2826C0.887451 21.6786 1.20881 22 1.60486 22H22.1701C22.5661 22 22.8875 21.6786 22.8875 21.2826V19.8478C22.8874 18.8259 22.17 17.9721 21.2135 17.7534ZM5.43092 17.6956H3.99615V11.4782C4.51535 11.4782 4.91173 11.4782 5.43092 11.4782V17.6956ZM8.30051 17.6956H6.86569V11.4782C7.38488 11.4782 7.78127 11.4782 8.30046 11.4782V17.6956H8.30051ZM11.17 17.6956H9.73527V11.4782H11.17V17.6956ZM14.0396 17.6956H12.6049V11.4782H14.0396V17.6956ZM16.9092 17.6956H15.4744V11.4782C15.9936 11.4782 16.39 11.4782 16.9092 11.4782V17.6956ZM16.9092 10.0435H15.4744V4.30435H12.6049V10.0435H11.1701V4.30435H8.30051V10.0435H6.86569V3.58695C6.86569 3.1909 7.18706 2.86954 7.5831 2.86954H16.1918C16.5878 2.86954 16.9092 3.1909 16.9092 3.58695V10.0435ZM19.7787 17.6956H18.344V11.4782C18.8632 11.4782 19.2596 11.4782 19.7787 11.4782V17.6956Z" fill="#828282" fill-opacity="0.5"/>
</g>
<defs>
<clipPath id="clip0_108_296">
<rect width="22" height="22" fill="white" transform="translate(0.887451)"/>
</clipPath>
</defs>
</svg>
