<svg width="50" height="50" viewBox="0 0 50 50" fill="none" xmlns="http://www.w3.org/2000/svg">
<circle cx="25" cy="25" r="25" fill="#D9D9D9"/>
<path fill-rule="evenodd" clip-rule="evenodd" d="M23.1743 17.5493C23.526 17.1978 24.0028 17.0004 24.5 17.0004C24.9972 17.0004 25.474 17.1978 25.8256 17.5493L36.4325 28.1562C36.6115 28.3292 36.7544 28.5361 36.8527 28.7648C36.9509 28.9936 37.0026 29.2396 37.0048 29.4886C37.007 29.7376 36.9595 29.9844 36.8653 30.2149C36.771 30.4453 36.6318 30.6547 36.4557 30.8307C36.2797 31.0068 36.0703 31.146 35.8399 31.2403C35.6095 31.3345 35.3626 31.382 35.1136 31.3798C34.8646 31.3776 34.6186 31.3259 34.3898 31.2277C34.1611 31.1294 33.9542 30.9865 33.7812 30.8075L24.5 21.5262L15.2187 30.8075C14.8651 31.149 14.3915 31.338 13.8998 31.3337C13.4082 31.3295 12.938 31.1323 12.5903 30.7846C12.2427 30.437 12.0455 29.9667 12.0412 29.4751C12.0369 28.9835 12.2259 28.5098 12.5675 28.1562L23.1743 17.5493Z" fill="black"/>
</svg>
