<svg width="22" height="22" viewBox="0 0 22 22" fill="none" xmlns="http://www.w3.org/2000/svg">
<path d="M11.255 2.71335C11.1867 2.64082 11.0959 2.60034 11.0015 2.60034C10.9071 2.60034 10.8163 2.64082 10.748 2.71335L2.31014 11.6697C2.2743 11.7078 2.2458 11.7536 2.22634 11.8042C2.20688 11.8549 2.19688 11.9095 2.19693 11.9646L2.19556 20.3704C2.19556 20.8026 2.35008 21.2171 2.62513 21.5227C2.90018 21.8283 3.27324 22 3.66222 22H8.06679C8.26128 22 8.44781 21.9142 8.58534 21.7614C8.72286 21.6086 8.80012 21.4013 8.80012 21.1852V14.2593C8.80012 14.1512 8.83875 14.0476 8.90752 13.9712C8.97628 13.8948 9.06954 13.8519 9.16679 13.8519H12.8334C12.9307 13.8519 13.024 13.8948 13.0927 13.9712C13.1615 14.0476 13.2001 14.1512 13.2001 14.2593V21.1852C13.2001 21.4013 13.2774 21.6086 13.4149 21.7614C13.5524 21.9142 13.739 22 13.9334 22H18.3362C18.7252 22 19.0982 21.8283 19.3733 21.5227C19.6483 21.2171 19.8028 20.8026 19.8028 20.3704V11.9646C19.8029 11.9095 19.7929 11.8549 19.7734 11.8042C19.754 11.7536 19.7255 11.7078 19.6896 11.6697L11.255 2.71335Z" fill="#828282" fill-opacity="0.5"/>
<path d="M21.7667 10.8039L18.3383 7.15968V1.62963C18.3383 1.41353 18.2611 1.20628 18.1236 1.05347C17.986 0.900661 17.7995 0.814815 17.605 0.814815H15.405C15.2105 0.814815 15.024 0.900661 14.8865 1.05347C14.749 1.20628 14.6717 1.41353 14.6717 1.62963V3.25926L12.017 0.438982C11.7686 0.159907 11.3992 0 11 0C10.6022 0 10.2337 0.159908 9.98524 0.439491L0.236517 10.8029C-0.0485658 11.1085 -0.0843158 11.6111 0.1751 11.9421C0.240243 12.0257 0.320007 12.0936 0.409537 12.1419C0.499066 12.1901 0.596489 12.2175 0.695876 12.2226C0.795263 12.2276 0.894535 12.2102 0.987651 12.1712C1.08077 12.1323 1.16578 12.0727 1.23751 11.9961L10.7479 1.89852C10.8161 1.82599 10.9069 1.78551 11.0014 1.78551C11.0958 1.78551 11.1866 1.82599 11.2548 1.89852L20.7661 11.9961C20.9062 12.1454 21.0939 12.2269 21.288 12.2227C21.4821 12.2185 21.6667 12.1289 21.8015 11.9737C22.0829 11.6498 22.0595 11.1151 21.7667 10.8039Z" fill="#828282" fill-opacity="0.5"/>
</svg>
