<svg width="36" height="37" viewBox="0 0 36 37" fill="none" xmlns="http://www.w3.org/2000/svg">
<path fill-rule="evenodd" clip-rule="evenodd" d="M28.4048 25.861C28.8269 25.6601 29.3119 25.6136 29.7678 25.7302C30.2236 25.8468 30.6187 26.1184 30.878 26.4935L30.9898 26.6805L34.8451 34.0138C34.9827 34.2753 35.0525 34.5644 35.0487 34.8568C35.0449 35.1492 34.9676 35.4364 34.8233 35.6946C34.6789 35.9528 34.4718 36.1745 34.219 36.341C33.9663 36.5075 33.6754 36.6142 33.3705 36.652L33.1218 36.6667H2.27889C1.97137 36.6668 1.66828 36.5969 1.39494 36.4629C1.12161 36.3288 0.885951 36.1346 0.707653 35.8963C0.529355 35.658 0.413591 35.3826 0.370027 35.093C0.326462 34.8035 0.356362 34.5083 0.45723 34.232L0.553614 34.012L4.40898 26.6787C4.62507 26.2539 5.00506 25.9247 5.46989 25.7596C5.93472 25.5945 6.44857 25.6063 6.90453 25.7924C7.36049 25.9785 7.72343 26.3246 7.91783 26.7588C8.11222 27.193 8.1231 27.6817 7.9482 28.1233L7.8576 28.3195L5.39788 33H30.0028L27.5431 28.3195C27.3148 27.8848 27.2773 27.3816 27.4389 26.9206C27.6005 26.4597 27.9479 26.0785 28.4048 25.861ZM17.7003 0C21.2791 0 24.7113 1.35208 27.2419 3.7588C29.7725 6.16551 31.1941 9.42972 31.1941 12.8333C31.1941 17.2003 28.7093 20.7478 26.1378 23.265C24.7175 24.6373 23.156 25.8706 21.4767 26.9463L20.7576 27.3973L20.1177 27.7805L19.8304 27.9455L19.335 28.2168C18.3172 28.7668 17.0835 28.7668 16.0657 28.2168L15.5703 27.9437L14.9727 27.5972L14.643 27.3973L13.924 26.9463C12.2447 25.8706 10.6832 24.6373 9.26288 23.265C6.69135 20.7478 4.20657 17.2003 4.20657 12.8333C4.20657 9.42972 5.62823 6.16551 8.15881 3.7588C10.6894 1.35208 14.1216 0 17.7003 0ZM17.7003 3.66667C15.1441 3.66667 12.6925 4.63244 10.885 6.35152C9.07741 8.0706 8.06193 10.4022 8.06193 12.8333C8.06193 15.8327 9.77757 18.5075 12.0272 20.7093C13.3803 22.0091 14.8757 23.1677 16.4878 24.1652L17.1432 24.563C17.3463 24.6816 17.532 24.7879 17.7003 24.882L18.2594 24.563L18.9129 24.1652C20.525 23.1677 22.0204 22.0091 23.3735 20.7093C25.6231 18.5093 27.3388 15.8327 27.3388 12.8333C27.3388 10.4022 26.3233 8.0706 24.5157 6.35152C22.7082 4.63244 20.2566 3.66667 17.7003 3.66667ZM17.7003 7.33333C19.2341 7.33333 20.705 7.9128 21.7896 8.94425C22.8741 9.9757 23.4834 11.3746 23.4834 12.8333C23.4834 14.292 22.8741 15.691 21.7896 16.7224C20.705 17.7539 19.2341 18.3333 17.7003 18.3333C16.1666 18.3333 14.6956 17.7539 13.6111 16.7224C12.5266 15.691 11.9173 14.292 11.9173 12.8333C11.9173 11.3746 12.5266 9.9757 13.6111 8.94425C14.6956 7.9128 16.1666 7.33333 17.7003 7.33333ZM17.7003 11C17.1891 11 16.6988 11.1932 16.3373 11.537C15.9758 11.8808 15.7727 12.3471 15.7727 12.8333C15.7727 13.3196 15.9758 13.7859 16.3373 14.1297C16.6988 14.4735 17.1891 14.6667 17.7003 14.6667C18.2116 14.6667 18.7019 14.4735 19.0634 14.1297C19.4249 13.7859 19.628 13.3196 19.628 12.8333C19.628 12.3471 19.4249 11.8808 19.0634 11.537C18.7019 11.1932 18.2116 11 17.7003 11Z" fill="#FF0000" fill-opacity="0.33"/>
</svg>
