<svg width="42" height="44" viewBox="0 0 42 44" fill="none" xmlns="http://www.w3.org/2000/svg">
<path d="M25.2572 3.06418C25.3142 2.84082 25.4127 2.63142 25.547 2.44794C25.6813 2.26446 25.8488 2.1105 26.0399 1.99487C26.231 1.87923 26.442 1.80417 26.6608 1.77399C26.8797 1.74381 27.102 1.7591 27.3152 1.81897C30.4297 2.67027 33.2713 4.37593 35.5473 6.7603C37.8233 9.14466 39.4514 12.1215 40.264 15.3843C40.3212 15.6076 40.3358 15.8406 40.3069 16.0698C40.2781 16.299 40.2065 16.5201 40.0961 16.7203C39.9857 16.9205 39.8388 17.096 39.6636 17.2367C39.4885 17.3774 39.2886 17.4806 39.0754 17.5403C38.9335 17.5794 38.7874 17.5994 38.6407 17.5997C38.2705 17.5997 37.9106 17.4716 37.6171 17.2353C37.3235 16.999 37.1127 16.6677 37.0174 16.2929C36.3546 13.6294 35.0258 11.1992 33.1679 9.25289C31.3101 7.30657 28.9903 5.91451 26.4479 5.22021C26.2345 5.1607 26.0344 5.0577 25.859 4.9171C25.6836 4.7765 25.5364 4.60106 25.4258 4.40081C25.3152 4.20057 25.2434 3.97944 25.2145 3.75009C25.1855 3.52074 25.2 3.28766 25.2572 3.06418ZM24.7678 12.2603C27.6638 13.0699 29.5244 15.0191 30.2972 18.0529C30.3926 18.4277 30.6034 18.759 30.8969 18.9953C31.1905 19.2316 31.5504 19.3597 31.9206 19.3597C32.0673 19.3594 32.2134 19.3395 32.3553 19.3003C32.5685 19.2406 32.7684 19.1374 32.9435 18.9967C33.1187 18.856 33.2656 18.6806 33.376 18.4803C33.4864 18.2801 33.558 18.0591 33.5868 17.8298C33.6156 17.6006 33.601 17.3677 33.5439 17.1443C32.4687 12.9291 29.6588 9.98545 25.6352 8.85904C25.2046 8.73855 24.746 8.80217 24.3603 9.0359C23.9745 9.26963 23.6932 9.65432 23.5782 10.1054C23.4632 10.5564 23.5239 11.0368 23.747 11.4409C23.9701 11.8451 24.3373 12.1398 24.7678 12.2603ZM41.9755 33.2375C41.6011 36.2186 40.2036 38.9549 38.0441 40.9355C35.8845 42.9161 33.1107 44.0054 30.2405 44C13.5663 44 1.90025e-05 29.7878 1.90025e-05 12.3197C-0.00512604 9.31289 1.03468 6.40695 2.92523 4.14461C4.81578 1.88226 7.42778 0.418234 10.2734 0.025955C10.993 -0.0660918 11.7217 0.0881322 12.3507 0.465604C12.9798 0.843076 13.4754 1.42355 13.7637 2.12038L18.1989 12.4935V12.5199C18.4196 13.0533 18.5108 13.6356 18.4642 14.2149C18.4177 14.7942 18.2349 15.3525 17.9322 15.8397C17.8944 15.8991 17.8545 15.9541 17.8125 16.0091L13.4402 21.4388C15.0132 24.7872 18.3564 28.2588 21.5947 29.911L26.7062 25.3548C26.7563 25.3105 26.8089 25.2694 26.8637 25.2316C27.3284 24.9069 27.8631 24.7087 28.4193 24.6549C28.9756 24.6011 29.5358 24.6935 30.0494 24.9236L30.0767 24.9368L39.97 29.581C40.6363 29.8819 41.1918 30.4007 41.5533 31.0598C41.9148 31.7189 42.0629 32.4829 41.9755 33.2375ZM38.6407 32.7975H38.6176L28.7474 28.1664L23.6338 32.7227C23.5843 32.7669 23.5325 32.808 23.4784 32.8459C22.9949 33.1838 22.436 33.3846 21.8562 33.4285C21.2765 33.4725 20.6958 33.3581 20.1709 33.0967C16.2375 31.1057 12.3167 27.029 10.4141 22.9524C10.1622 22.4065 10.0491 21.8016 10.0859 21.1965C10.1227 20.5913 10.3081 20.0064 10.6241 19.4983C10.6596 19.4386 10.6997 19.382 10.7438 19.3289L15.1203 13.8927L10.7102 3.55259C10.7094 3.54381 10.7094 3.53497 10.7102 3.52619C8.6737 3.80449 6.80388 4.85096 5.4509 6.46963C4.09792 8.0883 3.35457 10.1681 3.36008 12.3197C3.36786 19.7857 6.2024 26.9437 11.2418 32.223C16.2812 37.5023 23.1138 40.4718 30.2405 40.4799C32.293 40.4873 34.2778 39.7113 35.8238 38.297C37.3698 36.8827 38.3712 34.9269 38.6407 32.7953V32.7975Z" fill="#FF0000" fill-opacity="0.33"/>
</svg>
