<svg width="60" height="62" viewBox="0 0 60 62" fill="none" xmlns="http://www.w3.org/2000/svg">
<path d="M25.0768 31.709L37.5504 17.558C38.2098 16.8106 38.1547 15.6547 37.4269 14.9777C36.7009 14.2997 35.5759 14.3572 34.9174 15.1047L21.3819 30.459C21.0184 30.8711 20.8798 31.4075 20.9438 31.9191C20.9296 32.4345 21.1179 32.9526 21.5187 33.3254L36.4494 47.2424C36.7898 47.5604 37.2172 47.7166 37.6437 47.7166C38.128 47.7166 38.6097 47.5138 38.9607 47.1163C39.6192 46.3689 39.5649 45.213 38.8372 44.5359L25.0768 31.709Z" fill="black"/>
<path d="M59.9029 31.1098C59.9029 14.2533 46.5646 0.539062 30.1712 0.539062C13.7778 0.539062 0.44043 14.2533 0.44043 31.1098C0.44043 47.9672 13.7778 61.6814 30.1712 61.6814C46.5646 61.6814 59.9029 47.9672 59.9029 31.1098ZM30.1712 58.0264C15.7372 58.0264 3.99494 45.9515 3.99494 31.1098C3.99494 16.2689 15.7372 4.19399 30.1712 4.19399C44.6052 4.19399 56.3484 16.2689 56.3484 31.1098C56.3484 45.9515 44.6052 58.0264 30.1712 58.0264Z" fill="black"/>
</svg>
