<svg width="179" height="176" viewBox="0 0 179 176" fill="none" xmlns="http://www.w3.org/2000/svg">
<g clip-path="url(#clip0_167_78)">
<path d="M137.698 174.543C137.101 174.572 136.396 174.589 135.694 174.585C124.749 174.522 114.905 169.675 108.019 161.949L108.015 161.943C101.254 153.573 97.1728 142.68 97.2409 130.798C97.2457 129.959 97.271 129.12 97.3177 128.293L97.3188 128.275L97.3149 128.275C97.2979 127.533 97.2919 126.66 97.297 125.777C97.3669 113.585 99.7778 101.978 104.075 91.3936L104.095 91.4015C108.228 81.7189 113.555 73.4253 120.012 66.2385C125.524 60.1448 131.863 54.9651 138.855 50.8551L139.218 50.6599L139.247 50.6434L139.275 50.627C144.053 47.7804 149.669 45.0278 155.512 42.7141L170.996 70.0738C164.082 73.2385 158.261 77.932 153.753 83.7584L153.746 83.7672L153.739 83.7769L153.68 83.8556C148.894 89.6835 145.658 97.0107 144.719 105.067L144.718 105.082L144.716 105.097L144.699 105.277L144.546 106.867L146.142 106.92C153.507 107.164 160.035 110.673 164.449 116.103L164.454 116.109L164.486 116.149L164.509 116.176C169.742 122.256 172.927 130.328 172.877 139.178C172.874 139.632 172.861 140.085 172.842 140.538L172.811 140.598L172.824 140.974C172.838 141.361 172.845 141.809 172.842 142.266C172.79 151.458 168.912 159.692 162.791 165.38L162.774 165.393L162.746 165.419C156.415 171.15 148.069 174.622 138.952 174.57C138.551 174.567 138.163 174.56 137.781 174.542L137.78 174.571L137.779 174.54L137.719 174.54L137.712 174.829L137.698 174.543ZM45.2149 174.013C44.6177 174.042 43.9187 174.059 43.2166 174.055C32.5993 173.994 23.0174 169.43 16.1626 162.104L15.5075 161.386C8.76204 153.015 4.69001 142.135 4.75801 130.268C4.76262 129.463 4.78718 128.664 4.83032 127.875L4.83686 127.757L4.83198 127.757C4.81501 127.015 4.80902 126.141 4.81408 125.259C4.88398 113.067 7.29499 101.459 11.5924 90.8751L11.6119 90.883C15.7454 81.2006 21.0778 72.9062 27.5347 65.719C33.0511 59.6209 39.3895 54.4389 46.387 50.3278L46.7357 50.1403L46.7641 50.1249L46.7915 50.1084C51.5705 47.2665 57.1869 44.5092 63.0296 42.1956L78.5194 69.5553C71.6056 72.7188 65.7797 77.4062 61.2757 83.2282L61.2688 83.2369L61.2619 83.2466L61.2029 83.3254C56.4171 89.1533 53.181 96.4804 52.2423 104.537L52.2412 104.552L52.2392 104.566L52.2215 104.747L52.0679 106.337L53.6653 106.39C61.0301 106.634 67.5644 110.144 71.984 115.574L71.9879 115.579L72.0199 115.618L72.0305 115.631L72.0422 115.644L72.5252 116.22C77.4604 122.229 80.443 130.068 80.3939 138.631C80.3924 138.904 80.3873 139.177 80.3795 139.45L80.3031 139.489L80.3357 140.444C80.349 140.831 80.3572 141.289 80.3546 141.747C80.3019 150.935 76.4271 159.17 70.3049 164.853L70.2922 164.862L70.2637 164.887C63.9272 170.619 55.5814 174.091 46.4589 174.039C46.0626 174.037 45.6751 174.03 45.2989 174.012L45.2977 174.054L45.296 174.01L45.2364 174.01L45.2289 174.299L45.2149 174.013Z" fill="white" stroke="#828282" stroke-width="3"/>
</g>
<defs>
<clipPath id="clip0_167_78">
<rect width="177.686" height="174.695" fill="white" transform="translate(177.683 175.711) rotate(-179.671)"/>
</clipPath>
</defs>
</svg>
