<svg width="28" height="27" viewBox="0 0 28 27" fill="none" xmlns="http://www.w3.org/2000/svg">
<path d="M5.55617 9.7539C5.76853 9.7539 5.97881 9.80411 6.17499 9.90164C6.37117 9.99917 6.54941 10.1421 6.69953 10.3223C6.84964 10.5025 6.96869 10.7165 7.04986 10.9519C7.13104 11.1873 7.17275 11.4396 7.17262 11.6944V14.6526H15.0611V11.6932C15.0613 11.3292 15.1468 10.9727 15.308 10.6643C15.4691 10.356 15.6993 10.1082 15.9723 9.94942C16.2452 9.79063 16.55 9.7272 16.8516 9.76638C17.1532 9.80557 17.4395 9.94578 17.6778 10.171C17.9161 10.3962 18.0968 10.6973 18.1992 11.0399C18.3015 11.3825 18.3215 11.7528 18.2567 12.1083C18.192 12.4639 18.0451 12.7904 17.833 13.0505C17.6208 13.3107 17.3519 13.494 17.057 13.5794V19.1611C17.0568 19.3128 17.0065 19.4581 16.9171 19.5653C16.8277 19.6726 16.7065 19.7329 16.5801 19.7333H5.65456C5.52816 19.7329 5.40701 19.6726 5.31764 19.5653C5.22826 19.4581 5.17793 19.3128 5.17766 19.1611V13.5794C4.79231 13.4691 4.45416 13.1928 4.22742 12.803C4.00069 12.4133 3.90116 11.9372 3.94774 11.4652C3.99431 10.9932 4.18376 10.5581 4.48008 10.2427C4.77641 9.92719 5.15999 9.75326 5.55617 9.7539ZM6.61941 8.67707C6.54475 8.63925 6.4687 8.60549 6.3915 8.57589V6.9221C6.39203 6.56844 6.50924 6.22941 6.7175 5.9791C6.92576 5.7288 7.20815 5.58758 7.50294 5.5863H14.7298C15.0247 5.58726 15.3074 5.72834 15.5159 5.97868C15.7243 6.22902 15.8417 6.56823 15.8422 6.9221V8.57589C15.765 8.60548 15.689 8.63925 15.6143 8.67707C15.1199 8.92755 14.6981 9.34742 14.4016 9.88413C14.1052 10.4208 13.9472 11.0505 13.9476 11.6944V13.3168H8.28606V11.6944C8.28607 11.0506 8.128 10.4211 7.83159 9.88453C7.53519 9.34791 7.11358 8.92795 6.61941 8.67707Z" fill="white"/>
</svg>
