<svg width="20" height="17" viewBox="0 0 20 17" fill="none" xmlns="http://www.w3.org/2000/svg">
<path d="M2.42041 5.60632C2.70985 5.60632 2.99645 5.66335 3.26384 5.77416C3.53123 5.88496 3.77416 6.04737 3.97876 6.25209C4.18336 6.45682 4.34562 6.69986 4.45625 6.96731C4.56689 7.23477 4.62375 7.52141 4.62357 7.81084V11.1717H15.3753V7.80948C15.3755 7.396 15.4921 6.99094 15.7117 6.64062C15.9314 6.29029 16.2451 6.00884 16.6172 5.82844C16.9892 5.64805 17.4045 5.57598 17.8156 5.6205C18.2267 5.66501 18.6169 5.8243 18.9417 6.08016C19.2665 6.33602 19.5128 6.67811 19.6523 7.06733C19.7919 7.45655 19.819 7.87718 19.7308 8.28112C19.6425 8.68507 19.4424 9.05602 19.1532 9.35158C18.8641 9.64713 18.4976 9.85535 18.0957 9.95242V16.2937C18.0953 16.466 18.0267 16.6311 17.9049 16.7529C17.7831 16.8747 17.618 16.9433 17.4457 16.9437H2.55451C2.38223 16.9433 2.21711 16.8747 2.09529 16.7529C1.97347 16.6311 1.90488 16.466 1.90451 16.2937V9.95242C1.3793 9.82705 0.91841 9.51316 0.609378 9.07036C0.300347 8.62756 0.164692 8.08669 0.228175 7.55046C0.291658 7.01423 0.549858 6.51998 0.953742 6.16158C1.35763 5.80318 1.88043 5.60559 2.42041 5.60632ZM3.86957 4.38295C3.76781 4.33998 3.66416 4.30162 3.55894 4.268V2.38916C3.55966 1.98737 3.7194 1.6022 4.00325 1.31783C4.28711 1.03347 4.67199 0.873028 5.07378 0.871582H14.9237C15.3257 0.872667 15.7109 1.03295 15.9951 1.31735C16.2792 1.60176 16.4392 1.98713 16.4399 2.38916V4.268C16.3347 4.30162 16.231 4.33997 16.1293 4.38295C15.4554 4.66751 14.8805 5.14452 14.4764 5.75426C14.0724 6.364 13.8571 7.07938 13.8577 7.81084V9.65411H6.14115V7.81084C6.14116 7.0795 5.92572 6.36435 5.52172 5.75471C5.11773 5.14508 4.54309 4.66796 3.86957 4.38295Z" fill="#828282" fill-opacity="0.5"/>
</svg>
