<svg width="23" height="23" viewBox="0 0 23 23" fill="none" xmlns="http://www.w3.org/2000/svg">
<g clip-path="url(#clip0_140_104)">
<path d="M12.5995 19.0959H22.2492C22.6489 19.0959 22.9729 18.7759 22.9729 18.3809V8.84643C22.9729 8.45143 22.6489 8.13134 22.2492 8.13134H12.5995C12.1997 8.13134 11.8757 8.45143 11.8757 8.84643V18.3809C11.8757 18.7759 12.1997 19.0959 12.5995 19.0959ZM13.3232 9.56153H21.5255V17.6658H13.3232V9.56153Z" fill="white"/>
<path d="M8.56334 10.4409H9.34831V18.7863H8.56334C8.50537 18.7863 8.45309 18.8208 8.43094 18.8738C8.40856 18.9269 8.42081 18.9877 8.46203 19.0284L9.72926 20.2805C9.78533 20.3359 9.87626 20.3359 9.9323 20.2805L11.1996 19.0284C11.2408 18.9877 11.253 18.9269 11.2307 18.8738C11.2085 18.8208 11.1562 18.7863 11.0982 18.7863H10.3133V10.4409H11.0982C11.1562 10.4409 11.2085 10.4065 11.2307 10.3534C11.253 10.3003 11.2408 10.2395 11.1996 10.1988L9.9323 8.94669C9.87626 8.89128 9.7853 8.89128 9.72926 8.94669L8.46203 10.1988C8.42078 10.2395 8.40853 10.3003 8.43094 10.3534C8.45309 10.4065 8.50534 10.4409 8.56334 10.4409Z" fill="white"/>
<path d="M20.8802 19.7243C20.839 19.6836 20.7775 19.6715 20.7238 19.6936C20.67 19.7155 20.6352 19.7672 20.6352 19.8244V20.6H12.1888V19.8244C12.1888 19.7672 12.154 19.7155 12.1003 19.6936C12.0466 19.6715 11.9851 19.6836 11.9438 19.7243L10.6766 20.9764C10.6205 21.0319 10.6205 21.1217 10.6766 21.1771L11.9438 22.4292C11.9851 22.4699 12.0465 22.482 12.1003 22.4599C12.154 22.438 12.1888 22.3864 12.1888 22.3291V21.5534H20.6352V22.3291C20.6352 22.3863 20.67 22.438 20.7238 22.4599C20.7775 22.482 20.839 22.4699 20.8802 22.4292L22.1474 21.1771C22.2035 21.1217 22.2035 21.0319 22.1474 20.9764L20.8802 19.7243Z" fill="white"/>
</g>
<defs>
<clipPath id="clip0_140_104">
<rect width="22.869" height="22.4717" fill="white" transform="matrix(-1 0 0 -1 22.9729 22.4709)"/>
</clipPath>
</defs>
</svg>
