<svg width="15" height="15" viewBox="0 0 15 15" fill="none" xmlns="http://www.w3.org/2000/svg">
<g clip-path="url(#clip0_278_104)">
<path d="M13.3419 11.9406V7.90542H13.9662C14.2246 7.90542 14.4344 7.69877 14.4344 7.4441C14.4344 7.18943 14.2246 6.98278 13.9662 6.98278H12.4056V1.90836C12.4056 1.14522 11.7755 0.524414 11.0011 0.524414H3.51022C2.73573 0.524414 2.10568 1.14522 2.10568 1.90836V6.9828H0.545092C0.28663 6.9828 0.0769043 7.18946 0.0769043 7.44413C0.0769043 7.6988 0.28663 7.90545 0.545092 7.90545H1.16933V11.9406C0.545092 12.0812 0.0769043 12.6303 0.0769043 13.2874V14.21C0.0769043 14.4647 0.28663 14.6714 0.545092 14.6714H13.9662C14.2247 14.6714 14.4344 14.4647 14.4344 14.21V13.2874C14.4344 12.6303 13.9662 12.0812 13.3419 11.9406ZM3.04203 11.9035H2.10568V7.90542C2.44451 7.90542 2.7032 7.90542 3.04203 7.90542V11.9035ZM4.91475 11.9035H3.97838V7.90542C4.31721 7.90542 4.57589 7.90542 4.91472 7.90542V11.9035H4.91475ZM6.78745 11.9035H5.8511V7.90542H6.78745V11.9035ZM8.66017 11.9035H7.72382V7.90542H8.66017V11.9035ZM10.5329 11.9035H9.59654V7.90542C9.93537 7.90542 10.1941 7.90542 10.5329 7.90542V11.9035ZM10.5329 6.9828H9.59654V3.2923H7.72382V6.9828H6.78747V3.2923H4.91475V6.9828H3.97838V2.83098C3.97838 2.5763 4.1881 2.36965 4.44656 2.36965H10.0647C10.3232 2.36965 10.5329 2.5763 10.5329 2.83098V6.9828ZM12.4056 11.9035H11.4692V7.90542C11.8081 7.90542 12.0668 7.90542 12.4056 7.90542V11.9035Z" fill="white"/>
</g>
<defs>
<clipPath id="clip0_278_104">
<rect width="14.3575" height="14.147" fill="white" transform="translate(0.0769043 0.524536)"/>
</clipPath>
</defs>
</svg>
